<?xml version="1.0" encoding="utf-8"?>
<svg viewBox="-1804.727 -357.962 4724.7 1253.211" width="4724.7" height="1253.211" xmlns="http://www.w3.org/2000/svg">
  <path d="m2829.19 4147.75h-846.26c-40.48 0-73.34 32.08-73.34 71.55v849.88c0 39.54 32.86 71.66 73.34 71.66h846.26c40.49 0 73.56-32.11 73.56-71.66v-849.88c0-39.47-33.07-71.55-73.56-71.55z" fill="#0078ad" fill-rule="nonzero" transform="matrix(1, 0, 0, 1, -3609.211045, -4420.305308)"/>
  <path d="m2130.47 4284.46c47.12 0 85.39 38.28 85.39 85.39 0 47.16-38.27 85.44-85.39 85.44-47.19 0-85.35-38.28-85.35-85.44 0-47.1 38.16-85.39 85.35-85.39zm166.07 235.61h141.3v64.74h2.02c19.67-37.25 67.73-76.56 139.38-76.56 149.05 0 176.58 98.14 176.58 225.78v259.94h-147.14v-230.46c0-54.97-1.07-125.65-76.54-125.65-76.65 0-88.35 59.86-88.35 121.69v234.42h-147.25v-473.91zm-239.74 0h147.36v473.91h-147.36z" fill="#fefefe" fill-rule="nonzero" transform="matrix(1, 0, 0, 1, -3609.211045, -4420.305308)"/>
  <path d="M 3244.02 4423.67 L 3275.22 4423.67 L 3275.22 4843.59 L 3480.77 4843.59 L 3480.77 4870.72 L 3244.02 4870.72 L 3244.02 4423.67 Z M 5923.57 4646.19 C 5923.57 4610.91 5928.32 4579.03 5937.81 4550.54 C 5947.31 4522.05 5960.76 4497.74 5978.18 4477.61 C 5995.59 4457.48 6016.51 4442.11 6040.93 4431.48 C 6065.36 4420.85 6092.26 4415.54 6121.66 4415.54 C 6136.59 4415.54 6150.26 4417.12 6162.7 4420.29 C 6175.14 4423.46 6186.33 4427.64 6196.28 4432.84 C 6206.23 4438.04 6215.05 4443.8 6222.74 4450.14 C 6230.43 4456.47 6237.22 4462.81 6243.09 4469.14 L 6224.78 4489.49 C 6213.02 4476.83 6199 4466.08 6182.72 4457.27 C 6166.44 4448.46 6146.09 4444.05 6121.66 4444.05 C 6095.88 4444.05 6072.82 4448.8 6052.46 4458.29 C 6032.11 4467.79 6014.81 4481.24 6000.57 4498.66 C 5986.32 4516.07 5975.36 4537.21 5967.67 4562.09 C 5959.98 4586.96 5956.14 4615 5956.14 4646.21 C 5956.14 4677.42 5959.76 4705.57 5966.99 4730.67 C 5974.23 4755.77 5984.85 4777.14 5998.87 4794.78 C 6012.89 4812.41 6029.96 4826.09 6050.09 4835.82 C 6070.21 4845.54 6092.94 4850.41 6118.26 4850.41 C 6138.61 4850.41 6157.61 4847.47 6175.24 4841.59 C 6192.88 4835.71 6207.13 4827.34 6217.98 4816.49 L 6217.98 4677.43 L 6111.48 4677.43 L 6111.48 4650.97 L 6247.83 4650.97 L 6247.83 4828.02 C 6233.81 4842.95 6215.61 4855.16 6193.22 4864.66 C 6170.83 4874.15 6144.94 4878.9 6115.55 4878.9 C 6087.06 4878.9 6060.94 4873.47 6037.2 4862.62 C 6013.46 4851.77 5993.22 4836.28 5976.48 4816.15 C 5959.75 4796.03 5946.75 4771.6 5937.47 4742.89 C 5928.2 4714.17 5923.56 4681.95 5923.56 4646.22 L 5923.57 4646.19 Z M 5479.36 4423.68 L 5511.92 4423.68 L 5699.83 4739.13 L 5750.71 4827.99 L 5753.42 4827.99 C 5752.51 4806.29 5751.59 4784.55 5750.71 4762.87 C 5749.83 4741.19 5749.35 4719.46 5749.35 4697.74 L 5749.35 4423.68 L 5778.52 4423.68 L 5778.52 4870.73 L 5745.96 4870.73 L 5558.05 4555.29 L 5507.17 4466.42 L 5504.46 4466.42 C 5505.37 4488.12 5506.3 4509.3 5507.17 4529.85 C 5508.05 4550.4 5508.53 4571.63 5508.53 4593.28 L 5508.53 4870.74 L 5479.36 4870.74 L 5479.36 4423.69 L 5479.36 4423.68 Z M 5275.1 4423.68 L 5306.3 4423.68 L 5306.3 4870.73 L 5275.1 4870.73 L 5275.1 4423.68 Z M 4808.5 4423.68 L 4841.06 4423.68 L 5028.97 4739.13 L 5079.85 4827.99 L 5082.56 4827.99 C 5081.66 4806.29 5080.73 4784.55 5079.85 4762.87 C 5078.98 4741.19 5078.49 4719.46 5078.49 4697.74 L 5078.49 4423.68 L 5107.66 4423.68 L 5107.66 4870.73 L 5075.1 4870.73 L 4887.19 4555.29 L 4836.31 4466.42 L 4833.59 4466.42 C 4834.5 4488.12 4835.43 4509.3 4836.31 4529.85 C 4837.18 4550.4 4837.66 4571.63 4837.66 4593.28 L 4837.66 4870.74 L 4808.49 4870.74 L 4808.49 4423.69 L 4808.5 4423.68 Z M 4508.65 4639.4 C 4548.45 4639.4 4578.86 4631.37 4599.89 4615.32 C 4620.91 4599.27 4631.43 4574.73 4631.43 4541.72 C 4631.43 4508.26 4620.91 4484.63 4599.89 4470.83 C 4578.86 4457.03 4548.39 4450.14 4508.65 4450.14 L 4420.46 4450.14 L 4420.46 4639.41 L 4508.65 4639.41 L 4508.65 4639.4 Z M 4636.19 4870.73 L 4515.44 4665.18 L 4420.47 4665.18 L 4420.47 4870.73 L 4389.27 4870.73 L 4389.27 4423.68 L 4516.81 4423.68 C 4538.97 4423.68 4559.12 4425.86 4577.18 4430.13 C 4595.24 4434.4 4610.76 4441.32 4623.65 4450.82 C 4636.53 4460.32 4646.52 4472.55 4653.5 4487.45 C 4660.48 4502.35 4664.01 4520.46 4664.01 4541.72 C 4664.01 4577.45 4653.7 4605.4 4633.15 4625.5 C 4612.6 4645.59 4584.64 4658.17 4549.37 4663.15 L 4672.15 4870.73 L 4636.2 4870.73 L 4636.19 4870.73 Z M 4182.28 4690.96 L 4153.8 4607.52 C 4144.7 4580.86 4136.13 4555.26 4128.02 4530.86 C 4119.91 4506.47 4111.97 4480.43 4104.28 4452.85 L 4101.56 4452.85 C 4093.87 4480.44 4085.96 4506.44 4077.82 4530.86 C 4069.68 4555.28 4061.12 4580.91 4052.04 4607.52 L 4023.55 4690.96 L 4182.29 4690.96 L 4182.28 4690.96 Z M 4191.1 4717.42 L 4014.04 4717.42 L 3961.81 4870.73 L 3929.92 4870.73 L 4087.98 4423.68 L 4119.19 4423.68 L 4276.57 4870.73 L 4243.33 4870.73 L 4191.1 4717.42 Z M 3602.28 4423.68 L 3846.5 4423.68 L 3846.5 4450.82 L 3633.49 4450.82 L 3633.49 4619.73 L 3812.58 4619.73 L 3812.58 4646.87 L 3633.49 4646.87 L 3633.49 4843.6 L 3853.28 4843.6 L 3853.28 4870.73 L 3602.28 4870.73 L 3602.28 4423.68 Z" transform="matrix(1, 0, 0, 1, -3609.211045, -4420.305308)"/>
</svg>