<?xml version="1.0" encoding="UTF-8"?>
<svg width="940px" height="364px" viewBox="0 0 940 364" version="1.1" xmlns="http://www.w3.org/2000/svg" xmlns:xlink="http://www.w3.org/1999/xlink">
    <title>Logos/CIS/CIS_logo_no-tag_stacked_large</title>
    <defs>
        <linearGradient x1="7.07315124e-06%" y1="50%" x2="100.000007%" y2="50%" id="linearGradient-1">
            <stop stop-color="#0083C1" offset="0%"></stop>
            <stop stop-color="#0083C1" offset="30%"></stop>
            <stop stop-color="#0083C1" stop-opacity="0" offset="96%"></stop>
        </linearGradient>
        <linearGradient x1="26.1416475%" y1="21.3703432%" x2="54.9973025%" y2="62.8950176%" id="linearGradient-2">
            <stop stop-color="#0083C1" offset="0%"></stop>
            <stop stop-color="#0083C1" offset="30%"></stop>
            <stop stop-color="#0083C1" stop-opacity="0" offset="90%"></stop>
        </linearGradient>
    </defs>
    <g id="Logos/CIS/CIS_logo_no-tag_stacked_large" stroke="none" stroke-width="1" fill="none" fill-rule="evenodd">
        <g id="CIS-Logo-2-Line-2-Spot">
            <path d="M396.039828,135.065124 C394.559148,134.456126 393.017898,134.005837 391.441995,133.721829 C389.860271,133.439538 388.25623,133.30059 386.649452,133.30668 C382.75091,133.119513 378.918274,134.361575 375.872801,136.799124 C372.967722,139.525716 371.421507,143.397304 371.650308,147.371874 C371.483633,151.353866 373.014902,155.219832 375.864224,158.01067 C379.051873,160.746967 383.168355,162.159588 387.36709,161.958019 C388.951988,161.966327 390.534336,161.830129 392.094431,161.551122 C393.641488,161.26444 395.158339,160.83406 396.625212,160.265592 L397.017095,165.083619 L397.408963,169.901647 C395.642151,170.377773 393.844521,170.731506 392.028902,170.960321 C390.115074,171.207707 388.187379,171.332794 386.257584,171.33482 C378.041618,171.33482 371.22719,169.413734 366.466821,165.490531 C361.706452,161.567328 359,155.642008 359,147.633571 C359,140.047015 361.754785,134.186519 366.506605,130.222652 C371.258426,126.258785 378.00731,124.191561 385.995508,124.191561 C387.979494,124.1787 389.962198,124.295417 391.930928,124.540963 C393.612051,124.75293 395.270787,125.114809 396.887259,125.622263 L396.463544,130.343679 L396.039828,135.065124 Z M412.420325,156.814692 C412.616101,158.704794 413.647025,160.408813 415.231451,161.461215 C417.374376,162.795311 419.873616,163.445507 422.396029,163.325133 C424.140448,163.330023 425.879732,163.136172 427.580142,162.747341 C429.379755,162.329445 431.121361,161.693108 432.76609,160.852531 L432.928968,164.953971 L433.091846,169.055412 C431.400732,169.842955 429.613926,170.406759 427.776688,170.732542 C425.572643,171.142111 423.334901,171.343739 421.093034,171.33505 C415.093622,171.33505 410.072073,169.690642 406.550364,166.638416 C402.831927,163.301443 400.799172,158.481306 401.006827,153.493399 C400.861029,148.694198 402.725049,144.051486 406.15053,140.681989 C409.846429,137.361676 414.689406,135.604707 419.657772,135.781739 C424.776683,135.781739 428.885284,137.263218 431.714147,140.290986 C434.54301,143.318753 436.092164,147.892824 436.092164,154.077994 C436.092164,154.33969 436.075636,154.909528 436.050829,155.471128 C436.026023,156.032728 435.992966,156.58609 435.95991,156.814764 L412.420325,156.814764 L412.420325,156.814692 Z M425.526225,149.976525 C425.661357,148.170375 425.078631,146.383757 423.904217,145.003496 C422.688149,143.871032 421.057456,143.290749 419.398228,143.400039 C417.708424,143.370302 416.069458,143.977545 414.808048,145.100718 C413.458179,146.391742 412.611889,148.119904 412.42034,149.976525 L425.526239,149.976525 L425.526225,149.976525 Z M453.290777,142.487787 C454.598376,140.5303 456.33856,138.898695 458.377243,137.71869 C460.448553,136.481979 462.810349,135.81376 465.223476,135.781696 C468.826553,135.575509 472.344799,136.92437 474.883878,139.485401 C477.125564,141.919171 478.331751,145.516791 478.331751,150.172176 L478.331751,170.488685 L466.595001,170.488685 L466.595001,154.405707 C466.764523,152.025987 466.373642,149.639692 465.453661,147.43792 C464.619093,145.888874 462.935707,144.990558 461.182224,145.158526 C459.883084,145.115653 458.59966,145.452352 457.489387,146.127321 C456.556048,146.746749 455.805058,147.603556 455.313856,148.609397 C454.783559,149.699666 454.431106,150.867534 454.269822,152.068847 C454.083919,153.360246 453.996518,154.663881 454.008373,155.9685 L454.008373,170.488685 L442.205538,170.488685 L442.205538,147.633571 C442.205538,146.200454 442.188996,144.588674 442.140009,142.765406 C442.091022,140.942138 442.00959,138.907325 441.879711,136.627931 L452.898838,136.627931 C452.964964,137.344518 453.03048,138.369885 453.079481,139.435931 C453.128482,140.501976 453.160913,141.608629 453.160913,142.487844 L453.29072,142.487844 L453.290777,142.487787 Z M482.483238,136.627931 L489.265192,136.627931 L489.265192,128.943542 L494.84096,127.120289 L500.416643,125.297021 L500.416643,136.627931 L508.567705,136.627931 L508.567705,144.63759 L500.416558,144.63759 L500.416558,157.920152 C500.334868,159.157481 500.618229,160.391579 501.231587,161.469779 C502.115671,162.620766 503.538227,163.22619 504.981988,163.065907 C505.60812,163.065897 506.233827,163.033346 506.85657,162.968387 C507.454559,162.907758 508.048137,162.809632 508.633789,162.674591 L508.829738,166.48377 L509.025672,170.292948 C507.884332,170.520386 506.596031,170.699533 505.340488,170.821824 C504.084944,170.944115 502.862172,171.009535 501.851849,171.009535 C497.319546,171.009535 494.042459,170.048978 491.898463,168.038623 C489.754466,166.028269 488.743531,162.968032 488.743531,158.768816 L488.743531,144.637576 L482.483238,144.637576 L482.483238,136.627931 L482.483238,136.627931 Z M523.794531,156.814721 C523.990306,158.704822 525.021231,160.408842 526.605657,161.461243 C528.748581,162.795342 531.247821,163.445537 533.770234,163.325161 C535.514958,163.330036 537.254546,163.136186 538.955272,162.747369 C540.754666,162.329717 542.496,161.693367 544.140309,160.852559 L544.303187,164.954 L544.466065,169.05544 C542.774952,169.842983 540.988145,170.406787 539.150907,170.73257 C536.946858,171.14214 534.709111,171.343768 532.46724,171.335079 C526.467841,171.335079 521.446293,169.69067 517.924584,166.638444 C514.206147,163.301471 512.173391,158.481334 512.381047,153.493427 C512.235248,148.694226 514.099269,144.051514 517.52475,140.682018 C521.220648,137.361703 526.063626,135.604734 531.031991,135.781767 C536.150902,135.781767 540.258892,137.263246 543.087144,140.291014 C545.915395,143.318782 547.463937,147.892853 547.463937,154.078022 C547.463937,154.339719 547.448006,154.909556 547.423825,155.471156 C547.399645,156.032756 547.367186,156.586118 547.334115,156.814792 L523.794531,156.814792 L523.794531,156.814721 Z M536.900431,149.976553 C537.035619,148.170344 536.452762,146.383667 535.27811,145.003525 C534.061286,143.870889 532.429875,143.290626 530.769987,143.400067 C529.080852,143.370502 527.442614,143.977757 526.181941,145.100747 C524.832283,146.391888 523.986125,148.120007 523.794545,149.976553 L536.900445,149.976553 L536.900431,149.976553 Z M564.206973,144.050623 C564.815462,141.712516 566.073447,139.593793 567.835831,137.938828 C569.634125,136.453263 571.919408,135.684872 574.251307,135.781725 C574.912743,135.780217 575.573751,135.815425 576.231273,135.887184 C576.820094,135.945125 577.401566,136.062184 577.966873,136.236586 L577.772162,141.153668 L577.577437,146.070735 C576.956473,145.875114 576.321236,145.727932 575.677452,145.630517 C575.032817,145.532756 574.381714,145.4837 573.729688,145.483768 C571.16069,145.248118 568.6702,146.442932 567.24901,148.592878 C565.903756,150.709019 565.316551,153.948346 565.316551,158.441088 L565.316551,170.488685 L553.447547,170.488685 L553.447547,146.72139 C553.447547,144.931145 553.43163,143.107876 553.382956,141.382128 C553.334282,139.65638 553.252836,138.028167 553.121805,136.628002 L563.751495,136.628002 C563.816399,137.279779 563.897831,138.647532 563.963047,140.0963 C564.028264,141.545069 564.077237,143.074854 564.077237,144.050694 L564.207044,144.050694 L564.206973,144.050623 Z M623.025424,129.530524 C622.555354,129.396429 622.075755,129.298214 621.590773,129.236728 C621.050316,129.169337 620.506075,129.136763 619.961426,129.139208 C618.618203,129.042439 617.310375,129.596826 616.44707,130.628939 C615.623406,131.860057 615.230624,133.328628 615.329911,134.805884 L615.329911,136.627931 L623.613241,136.627931 L623.613241,144.63759 L615.329911,144.63759 L615.329911,170.488685 L603.463297,170.488685 L603.463297,144.63759 L596.615229,144.63759 L596.615229,136.627931 L603.463297,136.627931 L603.463297,134.152886 C603.463297,129.724953 604.555692,126.43671 606.838044,124.255447 C609.120397,122.074184 612.592892,121 617.352933,121 C618.507169,121.002061 619.660575,121.061951 620.8088,121.179445 C621.774858,121.267916 622.733331,121.425355 623.676864,121.650555 L623.351137,125.590561 L623.025424,129.530524 Z M665.749932,153.623089 C665.923433,158.499827 663.965822,163.211108 660.385787,166.5327 C651.978032,172.93875 640.317306,172.93526 631.913398,166.524178 C628.357235,163.244432 626.402783,158.584181 626.557218,153.752751 C626.335893,148.810453 628.261318,144.013212 631.839618,140.591528 C635.247124,137.490698 640.187226,135.781767 646.317669,135.781767 C651.474774,135.556828 656.52643,137.286762 660.45988,140.62475 C664.005499,144.00147 665.931487,148.733869 665.749932,153.623089 L665.749932,153.623089 Z M638.622113,153.427424 C638.522594,155.98508 639.267156,158.504573 640.741318,160.598518 C642.018387,162.304449 644.022614,163.313743 646.155548,163.325129 C648.288482,163.336322 650.303311,162.348301 651.59842,160.655985 C653.046373,158.628022 653.780135,156.177915 653.684866,153.689121 C653.787991,151.134719 653.05255,148.616613 651.590468,146.518026 C650.320592,144.800336 648.308387,143.788004 646.170261,143.791133 C644.032135,143.794278 642.022918,144.812511 640.758102,146.53392 C639.304087,148.533565 638.553123,150.957226 638.62217,153.427424 L638.622113,153.427424 Z M682.412035,144.050623 C683.019249,141.71269 684.276217,139.593894 686.037834,137.938828 C687.836203,136.452979 690.121783,135.68456 692.453908,135.781725 C693.115344,135.780218 693.776352,135.815425 694.433874,135.887184 C695.02269,135.945125 695.604158,136.062184 696.16946,136.236586 L695.974749,141.153668 L695.780038,146.070735 C695.159069,145.875114 694.523827,145.727932 693.880038,145.630517 C693.235409,145.532755 692.584311,145.4837 691.932289,145.483768 C689.36329,145.248132 686.872802,146.442942 685.451596,148.592878 C684.106357,150.709019 683.519152,153.948346 683.519152,158.441088 L683.519152,170.488685 L671.650148,170.488685 L671.650148,146.72139 C671.650148,144.931145 671.634217,143.107876 671.585543,141.382128 C671.536869,139.65638 671.455423,138.028167 671.324392,136.628002 L681.954082,136.628002 C682.018986,137.279779 682.100432,138.647532 682.165634,140.0963 C682.230836,141.545069 682.279838,143.074854 682.279838,144.050694 L682.41212,144.050694 L682.412035,144.050623 Z M375.591737,227.529283 L363.26717,227.529283 L363.26717,182.078437 L375.591737,182.078437 L375.591737,227.529283 Z M394.93099,199.528499 C396.238583,197.571003 397.978767,195.939393 400.017456,194.759388 C402.088766,193.522677 404.450561,192.854458 406.863688,192.822394 C410.46677,192.616206 413.985021,193.965067 416.524105,196.526099 C418.765791,198.959869 419.971978,202.557489 419.971978,207.212874 L419.971978,227.529283 L408.235228,227.529283 L408.235228,211.446377 C408.404746,209.066656 408.01386,206.68036 407.093874,204.478589 C406.259309,202.929541 404.575921,202.031224 402.822437,202.199195 C401.523297,202.156321 400.239872,202.49302 399.1296,203.167991 C398.196252,203.787419 397.445257,204.644233 396.954055,205.65008 C396.423762,206.740346 396.071309,207.908209 395.910021,209.109516 C395.724105,210.400919 395.636699,211.704559 395.648557,213.009184 L395.648557,227.529283 L383.84568,227.529283 L383.84568,204.67424 C383.84568,203.241124 383.829152,201.629343 383.780165,199.806075 C383.731177,197.982807 383.649746,195.947995 383.519867,193.6686 L394.538979,193.6686 C394.60512,194.385187 394.670635,195.410554 394.719623,196.4766 C394.76861,197.542646 394.801054,198.649299 394.801054,199.528528 L394.930862,199.528528 L394.93099,199.528499 Z M424.123422,193.6686 L430.905419,193.6686 L430.905419,185.984226 L436.481102,184.160958 L442.05687,182.33769 L442.05687,193.6686 L450.207932,193.6686 L450.207932,201.67826 L442.05687,201.67826 L442.05687,214.96085 C441.97518,216.198175 442.258541,217.432268 442.8719,218.510463 C443.755928,219.661384 445.178373,220.26681 446.622059,220.10662 C447.24819,220.106609 447.873897,220.074058 448.496641,220.0091 C449.094634,219.94847 449.688217,219.850344 450.273874,219.715304 L450.469808,223.524482 L450.665757,227.333661 C449.524403,227.561099 448.236116,227.74026 446.980572,227.862536 C445.725029,227.984813 444.502243,228.050247 443.491933,228.050247 C438.959616,228.050247 435.682544,227.089704 433.538533,225.079336 C431.394522,223.068967 430.383672,220.008744 430.383672,215.809528 L430.383672,201.678288 L424.123422,201.678288 L424.123422,193.668629 L424.123422,193.6686 Z M465.434757,213.85539 C465.63053,215.745489 466.661449,217.449508 468.245869,218.501913 C470.388796,219.836006 472.888034,220.486202 475.410447,220.365831 C477.155171,220.370705 478.894758,220.176855 480.595484,219.788039 C482.394878,219.370384 484.136212,218.734034 485.780522,217.893229 L485.9434,221.994669 L486.106278,226.09611 C484.415164,226.883653 482.628358,227.447457 480.79112,227.77324 C478.58707,228.182809 476.349324,228.384437 474.107452,228.375748 C468.10804,228.375748 463.086491,226.73134 459.564796,223.679114 C455.846359,220.342141 453.813604,215.522004 454.02126,210.534097 C453.875454,205.734894 455.739476,201.09218 459.164963,197.722687 C462.860859,194.40237 467.703838,192.645401 472.672204,192.822437 C477.791115,192.822437 481.89909,194.303845 484.727356,197.331684 C487.555622,200.359522 489.104135,204.933522 489.104135,211.118692 C489.104135,211.380388 489.088219,211.950226 489.064038,212.511826 C489.039857,213.073426 489.007398,213.626788 488.974328,213.855461 L465.434686,213.855461 L465.434757,213.85539 Z M478.540657,207.017223 C478.675848,205.211015 478.092996,203.42434 476.918351,202.044194 C475.701523,200.911556 474.070107,200.331293 472.410214,200.440737 C470.721082,200.411169 469.082849,201.018425 467.822182,202.141416 C466.472524,203.432558 465.626366,205.160677 465.434786,207.017223 L478.540686,207.017223 L478.540657,207.017223 Z M505.847214,201.091292 C506.455695,198.753189 507.71367,196.634466 509.476043,194.979497 C511.274337,193.493931 513.559621,192.72554 515.891519,192.822394 C516.552932,192.82089 517.213916,192.856097 517.871415,192.927854 C518.460231,192.985795 519.041698,193.102854 519.607001,193.277256 L519.41229,198.194337 L519.217579,203.111405 C518.59661,202.915783 517.961368,202.768602 517.317579,202.671186 C516.672949,202.573425 516.021851,202.524369 515.369829,202.524437 C512.80083,202.288801 510.310342,203.483612 508.889137,205.633548 C507.543897,207.749689 506.956692,210.989015 506.956692,215.481758 L506.956692,227.529283 L495.087688,227.529283 L495.087688,203.761988 C495.087688,201.971743 495.071772,200.148475 495.023083,198.422727 C494.974395,196.696979 494.892977,195.068765 494.761932,193.6686 L505.391622,193.6686 C505.45654,194.320377 505.537972,195.68813 505.603189,197.136913 C505.668405,198.585696 505.717378,200.115466 505.717378,201.091292 L505.847185,201.091292 L505.847214,201.091292 Z M535.238055,199.528499 C536.545646,197.571001 538.285831,195.93939 540.324521,194.759388 C542.395832,193.522677 544.757627,192.854458 547.170754,192.822394 C550.773831,192.61621 554.292075,193.965071 556.831156,196.526099 C559.072842,198.959869 560.279029,202.557489 560.279029,207.212874 L560.279029,227.529283 L548.542279,227.529283 L548.542279,211.446377 C548.711801,209.066657 548.32092,206.680362 547.400939,204.478589 C546.566369,202.929547 544.882985,202.031232 543.129502,202.199195 C541.830362,202.156322 540.546938,202.493022 539.436665,203.167991 C538.503322,203.78742 537.752332,204.644233 537.261134,205.65008 C536.730835,206.740344 536.378382,207.908208 536.2171,209.109516 C536.031192,210.40092 535.943786,211.704559 535.955637,213.009184 L535.955637,227.529283 L524.152759,227.529283 L524.152759,204.67424 C524.152759,203.241124 524.136231,201.629343 524.087244,199.806075 C524.038257,197.982807 523.956825,195.947995 523.826947,193.6686 L534.846073,193.6686 C534.9122,194.385187 534.977715,195.410554 535.026716,196.4766 C535.075718,197.542646 535.108148,198.649299 535.108148,199.528528 L535.237956,199.528528 L535.238055,199.528499 Z M577.546202,213.855405 C577.741974,215.745504 578.772893,217.449523 580.357313,218.501927 C582.500239,219.836022 584.999478,220.486218 587.521891,220.365845 C589.266615,220.370718 591.006202,220.176868 592.706929,219.788053 C594.506322,219.370396 596.247655,218.734046 597.891966,217.893243 L598.05483,221.994683 L598.217708,226.096124 C596.526599,226.883667 594.739798,227.447471 592.902564,227.773254 C590.698514,228.182823 588.460768,228.384451 586.218896,228.375762 C580.219484,228.375762 575.197936,226.731354 571.676241,223.679128 C567.957788,220.342165 565.925025,215.522022 566.13269,210.534111 C565.986891,205.73491 567.850912,201.092198 571.276393,197.722701 C574.972291,194.402388 579.815268,192.64542 584.783634,192.822451 C589.902545,192.822451 594.010535,194.303859 596.838786,197.331698 C599.667038,200.359537 601.215579,204.933536 601.215579,211.118706 C601.215579,211.380402 601.199663,211.95024 601.175468,212.51184 C601.151273,213.07344 601.118828,213.626802 601.085772,213.855476 L577.546116,213.855476 L577.546202,213.855405 Z M590.652102,207.017237 C590.787288,205.211028 590.204432,203.424352 589.029781,202.044208 C587.81296,200.911568 586.181547,200.331304 584.521658,200.440751 C582.832527,200.411184 581.194293,201.01844 579.933626,202.14143 C578.583963,203.432568 577.737804,205.160689 577.54623,207.017237 L590.65213,207.017237 L590.652102,207.017237 Z M604.267416,193.668615 L611.049371,193.668615 L611.049371,185.98424 L616.625054,184.160972 L622.200822,182.337704 L622.200822,193.668615 L630.351884,193.668615 L630.351884,201.678274 L622.200822,201.678274 L622.200822,214.960865 C622.119132,216.198189 622.402493,217.432282 623.015851,218.510477 C623.89993,219.661461 625.322481,220.266885 626.766238,220.106605 C627.392375,220.106595 628.018086,220.074044 628.640834,220.009085 C629.238823,219.948456 629.832401,219.85033 630.418053,219.715289 L630.612779,223.524468 L630.807489,227.333646 C629.667373,227.561084 628.379683,227.740245 627.124439,227.862522 C625.869194,227.984798 624.646422,228.050233 623.636113,228.050233 C619.103796,228.050233 615.826723,227.08969 613.682727,225.079321 C611.53873,223.068953 610.527795,220.00873 610.527795,215.809514 L610.527795,201.678274 L604.267416,201.678274 L604.267416,193.668615 L604.267416,193.668615 Z M681.723954,192.171853 C679.939551,191.479052 678.094748,190.952703 676.21316,190.599544 C674.589359,190.300285 672.941494,190.150366 671.290269,190.15167 C669.526857,190.081031 667.77118,190.421193 666.162184,191.145236 C664.936769,191.666002 664.134548,192.859795 664.116446,194.189522 C664.074989,195.324093 664.660227,196.389914 665.640494,196.965081 C667.583433,198.137927 669.653961,199.08573 671.811959,199.790125 C675.277133,200.911449 678.458015,202.768826 681.135895,205.234548 C683.328431,207.481035 684.506238,210.524727 684.39614,213.659683 C684.553376,217.869907 682.672561,221.898569 679.342133,224.485253 C676.081589,227.008291 671.353992,228.375537 665.485581,228.375537 C663.110227,228.380257 660.737512,228.217111 658.385239,227.887221 C656.13112,227.569445 653.904752,227.079373 651.725752,226.421324 L652.215609,221.440668 L652.705451,216.459998 C654.794407,217.370973 656.967097,218.077022 659.192872,218.568185 C661.064658,218.999602 662.976979,219.231613 664.897764,219.260328 C666.689881,219.349636 668.473578,218.961803 670.06626,218.136532 C671.289708,217.46096 672.036673,216.163253 672.005447,214.767571 C671.989092,213.471388 671.289069,212.279996 670.163921,211.633421 C668.14661,210.380779 665.984307,209.377614 663.724577,208.64599 C660.478932,207.587417 657.495091,205.853372 654.970081,203.558355 C652.747787,201.390411 651.52593,198.398915 651.595945,195.297396 C651.482926,191.098469 653.520015,187.131356 657.0005,184.772341 C660.934018,182.287837 665.529831,181.053424 670.180762,181.232188 C672.33467,181.220231 674.487497,181.331389 676.628683,181.565114 C678.59659,181.777932 680.54128,182.167453 682.439145,182.728949 L682.081557,187.45038 L681.723954,192.171853 Z M700.450825,213.855405 C700.646597,215.745504 701.677516,217.449523 703.261937,218.501927 C705.404863,219.83602 707.904102,220.486216 710.426515,220.365845 C712.171238,220.370719 713.910826,220.176869 715.611552,219.788053 C717.410946,219.370398 719.15228,218.734049 720.79659,217.893243 L720.959468,221.994683 L721.122346,226.096124 C719.431232,226.883667 717.644426,227.447471 715.807188,227.773254 C713.603138,228.182823 711.365391,228.384451 709.12352,228.375762 C703.124107,228.375762 698.102559,226.731354 694.580864,223.679128 C690.862427,220.342155 688.829671,215.522018 689.037327,210.534111 C688.891522,205.734909 690.755544,201.092194 694.18103,197.722701 C697.876927,194.402384 702.719905,192.645415 707.688272,192.822451 C712.807183,192.822451 716.915158,194.303859 719.743424,197.331698 C722.57169,200.359537 724.120203,204.933536 724.120203,211.118706 C724.120203,211.380402 724.104286,211.95024 724.080106,212.51184 C724.055925,213.07344 724.023466,213.626802 723.990396,213.855476 L700.450711,213.855476 L700.450825,213.855405 Z M713.556725,207.017237 C713.691915,205.21103 713.109064,203.424354 711.934418,202.044208 C710.717591,200.91157 709.086175,200.331307 707.426282,200.440751 C705.73715,200.411184 704.098916,201.01844 702.83825,202.14143 C701.488592,203.432572 700.642434,205.160691 700.450854,207.017237 L713.556754,207.017237 L713.556725,207.017237 Z M755.010086,202.849765 C754.003454,202.441717 752.957136,202.139071 751.887941,201.946688 C750.873245,201.765573 749.844321,201.675732 748.813545,201.678245 C746.574121,201.576344 744.388158,202.380469 742.750139,203.908723 C741.105079,205.710802 740.258637,208.099948 740.402854,210.534111 C740.2496,212.949303 741.091855,215.322063 742.734151,217.101733 C744.467508,218.655725 746.749797,219.455513 749.075535,219.323959 C750.070188,219.331706 751.063419,219.247376 752.042483,219.072049 C753.132019,218.868444 754.193806,218.537636 755.205978,218.086437 L755.400689,222.449559 L755.595414,226.812682 C754.20527,227.260153 752.782772,227.60039 751.340463,227.830394 C749.964681,228.032639 748.575282,228.128205 747.184723,228.116236 C741.446163,228.116236 736.750968,226.439106 733.490423,223.386525 C730.03498,219.97065 728.187322,215.254913 728.403957,210.404448 C728.254438,205.671901 730.137915,201.101225 733.579721,197.84431 C737.274321,194.653323 742.040732,192.975553 746.922563,193.147651 C748.518621,193.129866 750.114184,193.214008 751.699488,193.399561 C753.09725,193.567544 754.470515,193.898332 755.791249,194.385173 L755.400589,198.617455 L755.010086,202.849765 Z M786.556161,221.603353 C785.3068,223.742669 783.475306,225.484184 781.274373,226.625653 C778.974961,227.802426 776.423381,228.402976 773.839712,228.375504 C770.518108,228.489367 767.298097,227.221889 764.947755,224.875404 C762.658656,222.344943 761.450565,219.02136 761.581272,215.613863 L761.581272,193.6686 L773.384149,193.6686 L773.384149,212.226609 C773.238228,213.96974 773.686386,215.710971 774.655922,217.167836 C775.670098,218.292394 777.155233,218.87465 778.664714,218.739506 C780.610291,218.734677 782.436792,217.803152 783.581247,216.232049 C784.909739,214.362099 785.588202,212.109066 785.512853,209.817595 L785.512853,193.6686 L797.511664,193.6686 L797.511664,217.565515 C797.511664,219.323973 797.511664,221.114829 797.552387,222.816119 C797.59311,224.517409 797.674542,226.129118 797.83742,227.529283 L786.948101,227.529283 C786.883197,226.845705 786.817682,225.917574 786.768396,224.883656 C786.71911,223.849739 786.68604,222.710034 786.68604,221.603353 L786.556161,221.603353 L786.556161,221.603353 Z M816.191938,201.091292 C816.800427,198.753186 818.058412,196.634462 819.820796,194.979497 C821.619083,193.493931 823.904363,192.72554 826.236258,192.822394 C826.897694,192.820887 827.558702,192.856095 828.216224,192.927854 C828.80504,192.985795 829.386508,193.102854 829.95181,193.277256 L829.757099,198.194337 L829.562388,203.111405 C828.941419,202.915785 828.306177,202.768603 827.662388,202.671186 C827.017759,202.573425 826.366661,202.524369 825.714639,202.524437 C823.145636,202.288782 820.655139,203.483597 819.233946,205.633548 C817.888707,207.749689 817.301502,210.989015 817.301502,215.481758 L817.301502,227.529283 L805.432412,227.529283 L805.432412,203.761988 C805.432412,201.971743 805.416482,200.148475 805.367807,198.422727 C805.319133,196.696979 805.237687,195.068765 805.106657,193.6686 L815.736347,193.6686 C815.80125,194.320377 815.882696,195.68813 815.947899,197.136913 C816.013101,198.585696 816.062102,200.115466 816.062102,201.091292 L816.19191,201.091292 L816.191938,201.091292 Z M846.168164,188.720954 L834.365287,188.720954 L834.365287,179.994708 L846.168164,179.994708 L846.168164,188.720954 Z M846.168164,227.529283 L834.365287,227.529283 L834.365287,193.6686 L846.168164,193.6686 L846.168164,227.529283 L846.168164,227.529283 Z M851.024999,193.6686 L857.806954,193.6686 L857.806954,185.984226 L863.382651,184.160958 L868.958334,182.33769 L868.958334,193.6686 L877.109396,193.6686 L877.109396,201.67826 L868.958334,201.67826 L868.958334,214.96085 C868.876644,216.198175 869.160005,217.432268 869.773363,218.510463 C870.657447,219.66145 872.080003,220.266873 873.523764,220.106591 C874.149896,220.10658 874.775603,220.07403 875.398346,220.009071 C875.996339,219.94844 876.589922,219.850315 877.175579,219.715275 L877.37029,223.524454 L877.565001,227.333632 C876.424885,227.56107 875.137195,227.740231 873.881965,227.862508 C872.626734,227.984784 871.403948,228.050219 870.393639,228.050219 C865.861322,228.050219 862.584235,227.089676 860.440238,225.079307 C858.296242,223.068938 857.285378,220.008716 857.285378,215.8095 L857.285378,201.67826 L851.024999,201.67826 L851.024999,193.6686 L851.024999,193.6686 Z M919.246087,193.6686 L912.464118,211.445155 L905.682164,229.22171 C904.440869,233.076577 902.118273,236.495003 898.989919,239.07144 C896.114114,241.109467 892.641259,242.134708 889.117965,241.985794 C888.006898,241.988943 886.8967,241.923482 885.793726,241.789788 C884.739477,241.658636 883.694325,241.462732 882.664212,241.20319 L883.054871,236.775257 L883.445531,232.347325 C884.217582,232.575555 885.004689,232.749521 885.801079,232.867948 C886.468381,232.959486 887.14142,233.002909 887.81497,232.99788 C889.082998,233.040274 890.327675,232.650167 891.344005,231.89181 C892.396468,231.010436 893.108484,229.790408 893.357597,228.441549 L886.869564,211.055075 L880.381532,193.6686 L893.031841,193.6686 L895.477413,201.840916 L897.92297,210.013218 C898.248697,211.055075 898.655899,212.585442 899.038906,214.140025 C899.421913,215.694609 899.780711,217.273281 900.009716,218.411736 L900.139537,218.411736 C900.400375,217.273267 900.808174,215.629146 901.223924,214.04188 C901.639675,212.454615 902.063405,210.924248 902.356147,210.013218 L904.736815,201.840916 L907.117469,193.6686 L919.246087,193.6686 L919.246087,193.6686 Z M931.660051,180.30525 C929.352149,180.283634 927.127085,181.163107 925.459243,182.756163 C923.836507,184.320034 922.923362,186.477564 922.930965,188.729518 C922.918244,191.014483 923.814325,193.211087 925.42246,194.836697 C927.033714,196.45531 929.228319,197.360164 931.513816,197.348333 C933.768838,197.355737 935.93265,196.459727 937.520568,194.860885 C940.819349,191.524884 940.827486,186.163051 937.538846,182.817081 C935.997725,181.223754 933.878341,180.318209 931.660023,180.30525 L931.660051,180.30525 Z M931.466521,195.943907 C929.574665,195.945234 927.760776,195.191312 926.42863,193.849934 C925.085352,192.503569 924.333078,190.679265 924.337456,188.778775 C924.347772,186.913543 925.094923,185.127752 926.416525,183.809568 C927.720395,182.477077 929.503956,181.720887 931.369599,181.709556 C933.273989,181.705076 935.104845,182.443407 936.472011,183.767228 C937.824038,185.065458 938.589773,186.85653 938.593599,188.729518 C938.601685,190.643379 937.849805,192.482437 936.50262,193.843784 C935.173382,195.18915 933.359143,195.945707 931.466493,195.943907 L931.466521,195.943907 Z M933.550393,188.923933 L933.550393,188.827166 C934.110439,188.758086 934.620419,188.4707 934.969128,188.027674 C935.385406,187.408005 935.535818,186.647672 935.386769,185.916491 C935.237721,185.185309 934.801628,184.544188 934.175889,184.136315 C933.223941,183.691272 932.17617,183.489389 931.126741,183.548809 L927.780412,183.548809 L927.780412,193.6686 L930.303006,193.6686 L930.303006,189.746193 L930.593444,189.746193 C930.946258,189.71477 931.300873,189.781945 931.61765,189.940211 C931.833695,190.100713 931.999797,190.319035 932.096725,190.569901 L932.751451,192.119258 L933.406191,193.6686 L936.313798,193.6686 L935.465399,191.804597 L934.616987,189.940608 C934.524271,189.719619 934.393163,189.516737 934.229712,189.341327 C934.041221,189.148355 933.807835,189.004961 933.550365,188.923933 L933.550393,188.923933 Z M930.640738,187.858584 L930.303006,187.858584 L930.303006,185.630861 L930.640738,185.630861 C931.206184,185.594014 931.773582,185.661774 932.314379,185.830731 C932.649772,185.956434 932.858682,186.291535 932.823595,186.647536 C932.863621,187.038398 932.662189,187.414431 932.314379,187.598137 C931.783745,187.811503 931.2112,187.900599 930.64071,187.858584 L930.640738,187.858584 Z" id="Shape" fill="#003A5D" fill-rule="nonzero"></path>
            <path d="M182.021968,8.53125 C277.814564,8.53125 355.469807,86.1958548 355.469807,182 C355.469807,277.804145 277.814564,355.46875 182.021968,355.46875 C178.960206,355.46875 175.917841,355.389319 172.894872,355.230458 C169.872444,355.072601 166.871038,354.838366 163.890655,354.527753 L163.44532,358.765125 L163,363.002498 C166.127018,363.328903 169.276092,363.576755 172.44722,363.746053 C175.617951,363.913834 178.809515,364 182.021911,364 C282.525619,364 364,282.515853 364,182.000028 C364,81.484204 282.525675,0 182.021968,0 C178.809989,0 175.618425,0.0846631771 172.447277,0.253989531 C169.276537,0.421770781 166.127464,0.66965099 163,0.997630156 L163.445377,5.23495984 L163.890712,9.47228953 C166.870602,9.16269047 169.872008,8.92845552 172.894929,8.76958469 C175.917319,8.61171865 178.959665,8.53227375 182.021968,8.53125 Z" id="Path"></path>
            <path d="M321.399443,181.94592 C321.389731,247.758795 275.379477,304.599795 211.039543,318.284375 C146.69961,331.968955 81.5588663,298.768868 54.793377,238.650861 L50.8966814,240.386699 L47,242.12258 C69.9653962,293.839532 120.404925,327.917988 176.931299,329.908054 C233.457673,331.89812 286.16645,301.451101 312.70814,251.477094 C339.24983,201.503088 334.973849,140.75844 301.693293,95 L298.243093,97.5080572 L294.79288,100.016129 C312.125417,123.809748 321.44357,152.503206 321.399443,181.94592 L321.399443,181.94592 Z" id="Path"></path>
            <path d="M149.594523,154.988343 C149.616789,153.363816 149.25995,151.756373 148.552185,150.292948 C147.902427,148.995814 146.977573,147.855043 145.841706,146.949679 C143.515504,145.107287 140.770464,143.863702 137.848528,143.328532 C135.220249,142.777636 132.541004,142.504782 129.855292,142.514501 C123.738501,142.514501 115.988513,143.172584 109.767726,148.543212 C103.546939,153.91384 98.855411,163.997 98.855411,182.847141 C98.855411,194.419566 100.836375,204.225103 105.753991,211.137541 C110.671607,218.049979 118.525875,222.069304 130.272452,222.069304 C133.050547,222.114185 135.823326,221.811627 138.525924,221.168709 C141.345364,220.550712 143.902124,219.073451 145.841749,216.941726 C146.789667,215.915802 147.516916,214.707268 147.978713,213.390545 C148.520334,211.813127 148.784766,210.154324 148.76036,208.487209 L151.541438,208.487209 C151.402228,210.496935 151.263019,212.576216 151.158569,214.967195 C151.054119,217.358174 150.984543,220.060753 150.984543,223.316906 L150.984543,225.675041 C147.273125,226.802721 143.462043,227.573907 139.603348,227.978069 C135.584207,228.459261 131.540496,228.708073 127.492511,228.723254 C119.42627,228.862449 111.39981,227.565773 103.790357,224.894166 C97.1443839,222.559808 91.2587757,218.470185 86.7615771,213.061694 C83.8527349,209.382313 81.6603177,205.192592 80.2975717,200.708946 C78.7149304,195.45638 77.9414091,189.994659 78.003457,184.51054 C78.003457,172.521114 81.4093437,162.749865 87.0394278,155.178778 C92.7308216,147.708471 100.521171,142.093769 109.420526,139.048155 C113.069473,137.831142 116.838523,137.006794 120.66335,136.58918 C123.944748,136.199662 127.246285,136.002929 130.550857,136 C135.902763,136 141.046126,136.380984 145.007927,136.762053 C148.969728,137.143122 151.749953,137.524106 152.3756,137.524106 C152.236391,138.841404 152.166786,140.296947 152.13197,141.769628 C152.097153,143.242308 152.097167,144.73214 152.097167,146.118001 C152.097167,147.919729 152.131828,149.686617 152.18396,151.228427 C152.236093,152.770237 152.305712,154.086969 152.3756,154.988399 L149.594523,154.988399 L149.594523,154.988343 Z M196.853682,142.235745 C195.523643,143.864116 194.750274,145.873623 194.646403,147.971099 C194.256297,152.19257 194.111008,156.432978 194.21126,160.671151 L194.21126,208.347817 C194.1481,211.494512 194.275814,214.642136 194.593703,217.773461 C194.709187,219.343724 195.197911,220.864024 196.019463,222.208653 C196.49323,222.894341 197.094874,223.482755 197.791599,223.941819 C199.380091,224.975507 201.213864,225.573323 203.108007,225.674985 L203.108007,228.167923 C200.39794,228.029664 196.923003,227.925736 193.517401,227.856338 C190.111798,227.786939 186.775516,227.752084 184.342774,227.752084 C181.910033,227.752084 178.608709,227.786939 175.237767,227.856338 C171.866825,227.925736 168.426264,228.029707 165.715089,228.167923 L165.715089,225.674942 C166.845073,225.660431 167.963188,225.443031 169.015844,225.033161 C170.363456,224.523821 171.56775,223.697499 172.526294,222.624478 C173.845737,220.995964 174.59618,218.982664 174.663684,216.890258 C175.003494,212.666311 175.125401,208.427745 175.028924,204.191324 L175.028924,156.512449 C175.088806,153.367573 174.984494,150.22172 174.716413,147.087655 C174.636003,145.520515 174.17038,143.997122 173.360542,142.651613 C172.883546,141.962968 172.275494,141.374474 171.570934,140.919566 C169.939849,139.880688 168.065306,139.283714 166.13222,139.187533 L166.13222,136.692315 C168.843395,136.831678 172.3189,136.935649 175.724787,137.004778 C179.130674,137.073908 182.466956,137.108168 184.899697,137.108168 C187.331303,137.108168 190.63264,137.073879 194.003582,137.004778 C197.374525,136.935677 200.815086,136.831678 203.525138,136.692315 L203.525138,139.187533 C200.976376,139.249333 198.564712,140.351236 196.853711,142.235745 L196.853682,142.235745 Z M239.804239,228.999854 C235.874684,229.006232 231.947573,228.80391 228.039622,228.393596 C224.298388,228.040144 220.601967,227.314664 217.005498,226.227978 L217.005498,223.872137 C217.005498,220.614866 216.936163,217.773461 216.831898,215.243954 C216.727633,212.714447 216.588395,210.496865 216.448604,208.487195 L219.230818,208.487195 C219.473847,210.459007 220.067938,212.371736 220.985141,214.13539 C221.84221,215.771767 223.046126,217.202617 224.513347,218.32865 C226.43202,219.851183 228.626162,220.992079 230.976514,221.689325 C233.341819,222.406568 235.801045,222.76871 238.273319,222.763842 C247.239955,222.763842 251.758168,219.783626 254.034824,216.456956 C255.635106,213.957764 256.440815,211.034858 256.346369,208.071271 C256.52256,204.270228 255.128165,200.563353 252.488435,197.815295 C250.090353,195.286085 246.754071,193.311256 243.001255,190.885719 L239.108647,188.390501 L235.216038,185.895282 C230.664317,183.185932 226.643297,179.675793 223.348278,175.535349 C220.162419,171.137483 218.519503,165.815138 218.673881,160.392297 C218.704697,155.090943 220.570725,149.962842 223.956453,145.875063 C228.404833,140.608689 236.467361,136.139222 250.924005,136.139222 C255.659023,136.110281 260.39229,136.329757 265.104176,136.796738 C268.440728,137.142924 270.595591,137.52395 272.194113,137.663328 C271.974544,139.090281 271.875462,140.533088 271.897909,141.976563 C271.880153,143.587785 271.914543,145.008488 271.914543,145.146732 C271.914543,147.918426 271.984432,149.997806 272.054335,151.57474 C272.124238,153.151674 272.194113,154.226191 272.194113,154.988244 L269.274379,154.988244 C269.156731,153.370002 268.750748,151.78562 268.075474,150.30942 C267.446222,148.955498 266.581141,147.723563 265.520412,146.670838 C263.617633,144.904804 261.279246,143.673337 258.743583,143.101953 C256.321857,142.507183 253.835133,142.216164 251.341093,142.235646 C244.18266,142.235646 240.186341,144.314997 237.97963,146.983302 C236.166891,149.356166 235.239197,152.284205 235.355816,155.264733 C235.245787,158.411221 236.324576,161.484229 238.378649,163.875496 C240.900452,166.521434 243.820006,168.759834 247.032448,170.510297 L251.480828,173.213457 L255.929195,175.916616 C261.489049,179.312133 266.006793,182.465434 269.134517,186.519614 C272.26224,190.573794 274,195.52881 274,202.527798 C274,211.398182 270.525063,218.016144 264.513104,222.416495 C258.501146,226.816846 249.952309,228.999854 239.804239,228.999854 L239.804239,228.999854 Z" id="Shape" fill="#003A5D" fill-rule="nonzero"></path>
            <path d="M287.9999,223.468253 C288.008709,224.936984 287.434031,226.349147 286.402094,227.394313 C285.378677,228.426389 283.983998,229.004764 282.530535,228.999928 C281.057766,229.007441 279.643637,228.423308 278.605558,227.378569 C277.569437,226.329529 276.992037,224.912147 277.000083,223.437715 C276.995028,221.984293 277.58325,220.591721 278.628781,219.582094 C279.703456,218.553829 281.137388,217.986186 282.624692,218.000255 C284.054445,218.008544 285.420472,218.592917 286.413863,219.621225 C287.425587,220.646612 287.994973,222.02778 287.9999,223.468253 L287.9999,223.468253 Z M277.905924,223.468253 C277.903082,224.694868 278.38787,225.872325 279.253549,226.741349 C280.112123,227.606927 281.281022,228.093479 282.500195,228.092762 C283.719369,228.092044 284.887694,227.604115 285.745248,226.737526 C286.613348,225.859219 287.097891,224.672617 287.09275,223.437715 C287.09039,222.228795 286.597119,221.072669 285.725998,220.234425 C284.845046,219.379749 283.665031,218.903078 282.437615,218.906058 C281.235307,218.913447 280.085934,219.401574 279.245753,220.261622 C278.394158,221.112264 277.912676,222.264613 277.905924,223.468253 L277.905924,223.468253 Z M280.124697,220.093053 L282.281172,220.093053 C282.957293,220.05472 283.632344,220.184995 284.245647,220.472168 C284.648923,220.735446 284.929997,221.149229 285.026119,221.621146 C285.122242,222.093062 285.025411,222.583819 284.757242,222.983858 C284.532659,223.269711 284.204224,223.455247 283.843471,223.500055 L283.843471,223.562396 C284.009314,223.614725 284.159616,223.707311 284.280956,223.831886 C284.386238,223.945176 284.470704,224.076154 284.53047,224.218797 L285.077525,225.421686 L285.624581,226.624616 L283.749327,226.624616 L283.327572,225.624601 L282.90583,224.624641 C282.843502,224.462616 282.736466,224.32161 282.597165,224.218013 C282.392761,224.11588 282.163994,224.072562 281.9364,224.092893 L281.749406,224.092893 L281.749406,226.624616 L280.124766,226.624616 L280.124766,220.093039 L280.124697,220.093053 Z M281.749337,222.875402 L281.968162,222.875402 C282.33564,222.902534 282.704441,222.844914 283.046131,222.706984 C283.270174,222.588093 283.399839,222.345305 283.374045,222.092987 C283.396708,221.863424 283.262144,221.647324 283.046131,221.566381 C282.697776,221.457579 282.332339,221.413964 281.968162,221.437727 L281.749337,221.437727 L281.749337,222.875429 L281.749337,222.875402 Z" id="Shape" fill="#0083C1" fill-rule="nonzero"></path>
            <path d="M181.978035,355.46875 C86.1854521,355.46875 8.53022039,277.804145 8.53022039,182 C8.53022039,86.1958548 86.1854521,8.53125 181.978035,8.53125 C185.039815,8.53125 188.08218,8.61068068 191.105129,8.76954203 C194.127557,8.92739859 197.128967,9.16163354 200.10936,9.47224688 L200.55468,5.23487453 L201,0.997502188 C197.872973,0.671096563 194.7239,0.423244792 191.552781,0.253946875 C188.382022,0.0861845833 185.19044,0 181.978035,0 C81.4743415,0 0,81.4841755 0,182 C0,282.515824 81.4743415,364 181.978035,364 C185.190023,364 188.381591,363.915337 191.552738,363.74601 C194.723478,363.578229 197.872551,363.330349 201,363.00237 L200.554637,358.76504 L200.109317,354.52771 C197.129427,354.83731 194.128017,355.071544 191.105087,355.230415 C188.082735,355.388291 185.040384,355.467736 181.978035,355.46875 Z" id="Path" fill="url(#linearGradient-1)" fill-rule="nonzero"></path>
            <path d="M42.6005901,182.054104 C42.6103015,116.241248 88.6205483,59.4002649 152.960471,45.7156886 C217.300393,32.0311123 282.441125,65.2311899 309.20661,125.34918 L313.103305,123.613342 L317,121.877504 C294.03464,70.160526 243.595114,36.0820346 187.068727,34.0919482 C130.542339,32.1018618 77.8335412,62.5488798 51.2918496,112.522897 C24.750158,162.496913 29.0261602,223.241572 62.3067513,269 L65.75695,266.491944 L69.207163,263.983873 C51.8746234,240.190262 42.5564673,211.496812 42.6005901,182.054104 Z" id="Path" fill="url(#linearGradient-2)" fill-rule="nonzero"></path>
        </g>
    </g>
</svg>