<svg version="1.2" xmlns="http://www.w3.org/2000/svg" viewBox="0 0 1598 282" width="1598" height="282">
	<title>Dynatrace_Logo_color_positive_horizontal-svg</title>
	<style>
		.s0 { fill: #1a1a1a } 
		.s1 { fill: #1496ff } 
		.s2 { fill: #1284ea } 
		.s3 { fill: #b4dc00 } 
		.s4 { fill: #6f2da8 } 
		.s5 { fill: #591f91 } 
		.s6 { fill: #73be28 } 
	</style>
	<g id="Variants">
		<g id="Layer">
			<g id="Layer">
				<g id="Layer">
					<path id="Layer" class="s0" d="m1156.2 73.4h-36.8c-10.4 0-17.6 2-22 6.4-4.4 4.2-6.6 11.6-6.6 21.6v127.2h-22v-128.8c0.2-9.8 1.8-20.4 7-28.4 9.4-15 27.4-17.8 40.8-17.8h39.8v19.8z"/>
				</g>
				<g id="Layer">
					<path id="Layer" class="s0" d="m1051.2 208.6v19.8h-39.8c-13.4 0-31.4-2.8-40.8-17.8-5.2-8-6.8-18.6-7-28.4v-181.2h22v52.6h46.2v19.8h-46.2v107.6c0 10 2.2 17 6.6 21.2 4.4 4.4 11.6 6.4 22 6.4z"/>
				</g>
				<path id="Layer" fill-rule="evenodd" class="s0" d="m459.8 1v181.4c-0.2 9.8-2 20.4-7 28.4-9.4 14.8-27.4 17.8-40.8 17.8h-20.6c-28.2 0-45.2-8.4-55.6-18.6-16.2-15.8-16.2-38.4-16.2-40.8 0-2.8 0-53.6 0-56.4 0-2.4 0-25 16.2-40.8 10.6-10.2 27.6-18.6 55.6-18.6h46.2v-52.4zm-22.4 180.2v-107.8h-48.4c-18.2 0-29.4 5.2-36.4 12-8.2 8-11 18.6-11 26.8v57.8c0 8.2 2.8 18.8 11 26.8 6.8 6.8 18.2 12 36.4 12h20c10.4 0 17.6-2.2 22-6.4 4.4-4.4 6.6-11.4 6.4-21.2z"/>
				<path id="Layer" class="s0" d="m1344.4 112.2v58c0 8.2 2.8 18.8 11 26.8 6.8 6.8 18.2 12 36.4 12h53v19.8h-50.8c-28.2 0-45.2-8.4-55.6-18.6-16.2-15.8-16.2-38.4-16.2-40.8 0-1.6 0-54.8 0-56.4 0-2.4 0-25 16.2-40.8 10.6-10.2 27.6-18.6 55.6-18.6h50.8v19.8h-53c-18.2 0-29.4 5.2-36.4 12-8.2 7.8-11 18.6-11 26.8z"/>
				<path id="Layer" fill-rule="evenodd" class="s0" d="m940.8 182.2c-0.2 9.8-2 20.4-7 28.4-9.4 14.8-27.4 17.8-40.8 17.8h-44.6c-13.4 0-31.4-2.8-40.8-17.8-5.2-8-6.8-18.6-7-28.4v-7c0.2-9.8 2-20.4 7-28.4 9.4-14.8 27.4-17.8 40.8-17.8h70.2v-17c0-8.2-2.8-18.8-11-26.8-6.8-6.8-18.2-12-36.4-12h-51.2v-19.8h49c28.2 0 45.2 8.4 55.6 18.6 16.2 15.8 16.2 38.4 16.2 40.8 0 11.4 0 69.4 0 69.4zm-22-1v-32.4h-67.2c-10.4 0-17.6 2.2-22 6.4-4.4 4.2-6.6 11.2-6.6 21.2v4.8c0 9.8 2 16.8 6.4 21.2 4.4 4.4 11.6 6.4 22 6.4h38.8c10.4 0 17.6-2.2 22-6.4 4.4-4.4 6.6-11.4 6.6-21.2z"/>
				<path id="Layer" fill-rule="evenodd" class="s0" d="m1304.8 182.2c-0.2 9.8-2 20.4-7 28.4-9.4 14.8-27.4 17.8-40.8 17.8h-44.6c-13.4 0-31.4-2.8-40.8-17.8-5.2-8-6.8-18.6-7-28.4v-7c0.2-9.8 2-20.4 7-28.4 9.4-14.8 27.4-17.8 40.8-17.8h70.2v-17c0-8.2-2.8-18.8-11-26.8-6.8-6.8-18.2-12-36.4-12h-51.2v-19.8h49c28.2 0 45.2 8.4 55.6 18.6 16.2 15.8 16.2 38.4 16.2 40.8 0 11.4 0 69.4 0 69.4zm-22-1v-32.4h-67.2c-10.4 0-17.6 2.2-22 6.4-4.4 4.2-6.6 11.2-6.6 21.2v4.8c0 9.8 2 16.8 6.4 21.2 4.4 4.4 11.6 6.4 22 6.4h38.8c10.4 0 17.6-2.2 22-6.4 4.4-4.4 6.6-11.4 6.6-21.2z"/>
				<path id="Layer" class="s0" d="m547.2 281h-23l20.2-52.6-67.2-175h22.8l55.8 145.2 55.8-145.2h23z"/>
				<path id="Layer" class="s0" d="m783.4 228.6h-22v-116.4c0-8.2-2.8-18.8-10.8-26.8-6.8-6.6-19.8-11.8-37.2-12-17.4 0.2-30.4 5.4-37.2 12-8.2 8-10.8 18.6-10.8 26.8v116.4h-22c0-9 0-113 0-115.8 0-2.4 0-25 16-40.8 10.2-10 26.4-18.2 52.8-18.6h2.4c26.4 0.4 42.6 8.6 52.8 18.6 16 15.8 16 38.4 16 40.8 0 2.8 0 106.8 0 115.8z"/>
				<path id="Layer" fill-rule="evenodd" class="s0" d="m1597 112.8v36.4h-118v20.6c0 8.2 2.8 18.8 10.8 26.8 6.8 6.6 19.8 11.8 37.2 12h50.8v20h-52c-26.4-0.4-42.6-8.6-52.8-18.6-16-15.8-16-38.4-16-40.8v-56.4c0-2.4 0-25 16-40.8 10.2-10 26.4-18.2 52.8-18.6h2.4c26.4 0.4 42.6 8.6 52.8 18.6 16.2 15.8 16.2 38.4 16 40.8zm-21.8 16.6v-17.2c0-8.2-2.8-18.8-10.8-26.8-6.8-6.6-19.8-11.8-37.2-12-17.4 0.2-30.4 5.4-37.2 12-8.2 8-10.8 18.6-10.8 26.8v17.2z"/>
			</g>
			<g id="Layer">
				<path id="Layer" class="s1" d="m94.4 24.4c-3.6 19-8 47.2-10.4 75.8-4.2 50.4-1.6 84.2-1.6 84.2l-71 67.4c0 0-5.4-37.8-8.2-80.4-1.6-26.4-2.2-49.6-2.2-63.6 0-0.8 0.4-1.6 0.4-2.4 0-1 1.2-10.4 10.4-19.2 10-9.6 83.8-67.4 82.6-61.8z"/>
				<path id="Layer" class="s2" d="m94.4 24.4c-3.6 19-8 47.2-10.4 75.8 0 0-78.6-9.4-83 9.6 0-1 1.4-12.6 10.6-21.4 10-9.6 84-69.6 82.8-64z"/>
				<path id="Layer" class="s3" d="m9.4 85.8c20.4-19.4 71.2-67.6 81.2-77.2 9.2-8.8 19-7.6 20-7.6 13.8 0.8 38.2 2.6 66 6 42.4 5 79.6 12 79.6 12l-71 67.4c0 0-33.4-4.2-84-2.6-28.6 0.8-57 3.8-76.2 6.4-3.8 0.4-13.2 2.4-19 9.8-2.8 3.8-4.2 6.2-5 9.6 0-1.6 0-3 0-4.4 0-0.8-0.8-10.6 8.4-19.4z"/>
				<path id="Layer" class="s4" d="m188.8 269.4c-9.2 8.8-19 10.6-20 10.6-1 0-2.6 0.8-3.6 0.8-14-0.8-37-2.4-63-5.4-42.4-4.8-80-12.2-80-12.2l71-67.6c0 0 33.6 4.2 84.2 2.6 28.6-1 57-4.2 76.2-6.8 5.6-0.6-54.8 68.4-64.8 78z"/>
				<path id="Layer" class="s5" d="m187 271.2c-9.2 8.8-22.2 9.4-23.2 9.4 19-3.4 13.6-82.4 13.6-82.4 28.6-1 57-4.2 76.2-6.8 5.6-0.6-56.6 70.2-66.6 79.8z"/>
				<path id="Layer" class="s6" d="m168 281c-1.4 0-2.8-0.2-4.4-0.2 3.6-0.6 6-1.8 9.8-4.6 7.6-5.4 10-14.8 10.8-18.6 3.4-19 8-47.2 10.2-75.8 4-50.4 1.6-84 1.6-84l71-67.6c0 0 5.2 37.6 8.2 80.2 1.8 27.8 2.4 52.4 2.6 66 0 1 0.8 10.8-8.4 19.6-10 9.6-60.8 58-81 77.4-9.6 8.8-19.4 7.6-20.4 7.6z"/>
			</g>
		</g>
	</g>
</svg>